<svg width="26" height="23" viewBox="0 0 26 23" fill="none" xmlns="http://www.w3.org/2000/svg">
<path d="M25.0716 5.60451C24.9553 5.43638 24.7999 5.29895 24.6188 5.20401C24.4378 5.10907 24.2364 5.05943 24.0319 5.05937H6.74538L5.28576 1.55577C5.09494 1.09398 4.77099 0.69944 4.35519 0.422385C3.93938 0.145329 3.45052 -0.00170198 2.95087 1.48653e-05H0V2.52969H2.95087L8.95125 16.9299C9.04737 17.1603 9.20951 17.3571 9.41725 17.4955C9.625 17.6339 9.86906 17.7078 10.1187 17.7077H20.2374C20.7648 17.7077 21.2366 17.3801 21.4226 16.8881L25.2171 6.76943C25.2888 6.57796 25.313 6.37195 25.2877 6.16907C25.2623 5.96619 25.1882 5.77247 25.0716 5.60451ZM19.3609 15.1781H10.9623L7.80025 7.58904H22.2068L19.3609 15.1781Z" fill="#122443"/>
<path d="M10.7517 22.767C11.7996 22.767 12.649 21.9176 12.649 20.8698C12.649 19.822 11.7996 18.9725 10.7517 18.9725C9.70392 18.9725 8.85449 19.822 8.85449 20.8698C8.85449 21.9176 9.70392 22.767 10.7517 22.767Z" fill="#122443"/>
<path d="M19.6023 22.767C20.6502 22.767 21.4996 21.9176 21.4996 20.8698C21.4996 19.822 20.6502 18.9725 19.6023 18.9725C18.5545 18.9725 17.7051 19.822 17.7051 20.8698C17.7051 21.9176 18.5545 22.767 19.6023 22.767Z" fill="#122443"/>
</svg>
