<svg width="24" height="22" viewBox="0 0 24 22" fill="none" xmlns="http://www.w3.org/2000/svg">
<path d="M8.87624 16.2731C6.39545 16.2731 4.2961 15.4853 2.57821 13.9098C0.860314 12.3342 0.000911107 10.4098 7.22527e-07 8.13656C-0.000909661 5.86333 0.858493 3.93893 2.57821 2.36336C4.29792 0.787786 6.39727 0 8.87624 0C11.3552 0 13.455 0.787786 15.1756 2.36336C16.8963 3.93893 17.7552 5.86333 17.7525 8.13656C17.7525 9.05453 17.5932 9.92034 17.2745 10.734C16.9559 11.5477 16.5235 12.2674 15.9772 12.8933L23.6245 19.9033C23.8748 20.1328 24 20.4248 24 20.7795C24 21.1342 23.8748 21.4263 23.6245 21.6558C23.3741 21.8853 23.0555 22 22.6686 22C22.2816 22 21.963 21.8853 21.7127 21.6558L14.0654 14.6458C13.3826 15.1465 12.5974 15.5429 11.7098 15.835C10.8222 16.1271 9.87767 16.2731 8.87624 16.2731ZM8.87624 13.7696C10.5832 13.7696 12.0344 13.2221 13.2297 12.1272C14.425 11.0323 15.0222 9.70211 15.0213 8.13656C15.0204 6.571 14.4232 5.24119 13.2297 4.14714C12.0362 3.05309 10.585 2.50522 8.87624 2.50356C7.16745 2.50189 5.71676 3.04975 4.52415 4.14714C3.33155 5.24453 2.73388 6.57434 2.73115 8.13656C2.72842 9.69878 3.32609 11.029 4.52415 12.1272C5.72222 13.2255 7.17292 13.7729 8.87624 13.7696Z" fill="#122443"/>
</svg>
